<svg height="30" viewBox="0 0 360 240" width="50" xmlns="http://www.w3.org/2000/svg" xmlns:xlink="http://www.w3.org/1999/xlink"><path d="m0 0h360v240h-360z" fill="#fff"/><g fill="#e30a17"><path d="m0 24h360v24h-360z"/><path d="m0 192h360v24h-360z"/><circle cx="120" cy="120" r="60"/></g><circle cx="135" cy="120" fill="#fff" r="48"/><g fill="#e30a17" transform="matrix(0 -1 1 0 200.7 120)"><g id="a"><path id="b" d="m0-30v30h15" transform="matrix(.951 .309 -.309 .951 -9.271 -1.468)"/><use transform="scale(-1 1)" xlink:href="#b"/></g><use transform="matrix(.309 .951 -.951 .309 0 0)" xlink:href="#a"/><use transform="matrix(-.809 .588 -.588 -.809 0 0)" xlink:href="#a"/><use transform="matrix(-.809 -.588 .588 -.809 0 0)" xlink:href="#a"/><use transform="matrix(.309 -.951 .951 .309 0 0)" xlink:href="#a"/></g></svg>